<svg xmlns="http://www.w3.org/2000/svg" width="88" height="176" fill="none"><path fill="#DCF986" d="M88 44c0 24.3-19.7 44-44 44S0 68.3 0 44 19.7 0 44 0s44 19.7 44 44z"/><path fill="#DCF986" d="M0 44h88v132H0V44z"/><path fill="#1D1D1D" d="M56.235 22.578c-2.219-3.854-7.165-5.194-11.048-2.991L21.019 33.295c-3.316 1.88-3.327 6.624-.02 8.52l21.8 12.493.096-6.048a5.351 5.351 0 0 0-2.698-4.725l-10.4-5.96 26.438-14.997z"/><path fill="#1D1D1D" d="M21.595 48.513c-2.253 3.834-.949 8.757 2.914 10.993L48.553 73.43c3.299 1.91 7.442-.452 7.442-4.243v-24.99L50.67 47.14a5.353 5.353 0 0 0-2.773 4.682v11.921l-26.302-15.23z"/><path fill="#1D1D1D" d="M69.348 56.951c-.02 4.44-3.662 8.022-8.134 8.003l.137-30.227-10.4 5.96a5.433 5.433 0 0 1-5.472-.042l-5.23-3.106 21.8-12.494c3.309-1.896 7.44.485 7.424 4.276l-.125 27.63z"/></svg>