<?xml version="1.0" encoding="UTF-8"?>
<svg xmlns="http://www.w3.org/2000/svg" xmlns:xlink="http://www.w3.org/1999/xlink" width="134px" height="47px" viewBox="0 0 134 47" version="1.1">
<g id="surface1">
<path style=" stroke:none;fill-rule:nonzero;fill:rgb(86.27451%,97.647059%,52.54902%);fill-opacity:1;" d="M 45.464844 23.5 C 45.464844 36.144531 35.285156 46.398438 22.730469 46.398438 C 10.175781 46.398438 0 36.144531 0 23.5 C 0 10.855469 10.175781 0.601562 22.730469 0.601562 C 35.285156 0.601562 45.464844 10.855469 45.464844 23.5 Z M 45.464844 23.5 "/>
<path style=" stroke:none;fill-rule:nonzero;fill:rgb(11.372549%,11.372549%,11.372549%);fill-opacity:1;" d="M 29.054688 11.148438 C 27.898438 9.136719 25.351562 8.441406 23.347656 9.589844 L 10.859375 16.726562 C 10.066406 17.175781 9.574219 18.019531 9.574219 18.9375 C 9.570312 19.855469 10.058594 20.703125 10.847656 21.15625 L 22.113281 27.660156 L 22.160156 24.511719 C 22.175781 23.496094 21.640625 22.554688 20.769531 22.050781 L 15.394531 18.949219 Z M 29.054688 11.148438 "/>
<path style=" stroke:none;fill-rule:nonzero;fill:rgb(11.372549%,11.372549%,11.372549%);fill-opacity:1;" d="M 11.15625 24.644531 C 10.597656 25.601562 10.445312 26.746094 10.726562 27.820312 C 11.007812 28.894531 11.707031 29.808594 12.664062 30.363281 L 25.085938 37.609375 C 26.789062 38.605469 28.929688 37.375 28.929688 35.402344 L 28.929688 22.398438 L 26.179688 23.929688 C 25.296875 24.417969 24.746094 25.351562 24.746094 26.367188 L 24.746094 32.570312 Z M 11.15625 24.644531 "/>
<path style=" stroke:none;fill-rule:nonzero;fill:rgb(11.372549%,11.372549%,11.372549%);fill-opacity:1;" d="M 35.828125 29.035156 C 35.816406 31.34375 33.9375 33.210938 31.625 33.199219 L 31.695312 17.46875 L 26.324219 20.570312 C 25.445312 21.078125 24.367188 21.070312 23.496094 20.546875 L 20.796875 18.933594 L 32.058594 12.429688 C 33.765625 11.445312 35.902344 12.683594 35.894531 14.65625 Z M 55.035156 29.671875 L 55.035156 11.722656 L 66.070312 11.722656 L 66.070312 14.726562 L 58.101562 14.726562 L 58.101562 19.199219 L 64.542969 19.199219 L 64.542969 22.191406 L 58.101562 22.191406 L 58.101562 29.671875 Z M 74.058594 30.042969 C 72.683594 30.042969 71.480469 29.738281 70.457031 29.132812 C 69.441406 28.539062 68.613281 27.671875 68.0625 26.628906 C 67.503906 25.554688 67.222656 24.328125 67.222656 22.941406 C 67.222656 21.527344 67.511719 20.289062 68.089844 19.226562 C 68.644531 18.183594 69.476562 17.320312 70.492188 16.734375 C 71.519531 16.132812 72.707031 15.835938 74.058594 15.835938 C 75.441406 15.835938 76.644531 16.140625 77.671875 16.746094 C 78.6875 17.339844 79.515625 18.214844 80.0625 19.265625 C 80.632812 20.328125 80.917969 21.550781 80.917969 22.941406 C 80.917969 24.335938 80.628906 25.570312 80.050781 26.640625 C 79.503906 27.683594 78.671875 28.554688 77.660156 29.144531 C 76.632812 29.746094 75.433594 30.042969 74.058594 30.042969 Z M 74.058594 27.226562 C 75.277344 27.226562 76.1875 26.828125 76.78125 26.03125 C 77.375 25.234375 77.671875 24.203125 77.671875 22.941406 C 77.671875 21.636719 77.371094 20.597656 76.769531 19.824219 C 76.164062 19.042969 75.261719 18.652344 74.058594 18.652344 C 73.234375 18.652344 72.554688 18.835938 72.019531 19.199219 C 71.496094 19.558594 71.105469 20.0625 70.851562 20.707031 C 70.59375 21.347656 70.46875 22.09375 70.46875 22.9375 C 70.46875 24.242188 70.769531 25.289062 71.371094 26.066406 C 71.980469 26.839844 72.878906 27.226562 74.058594 27.226562 Z M 83.722656 29.671875 L 83.722656 16.207031 L 86.433594 16.207031 L 86.433594 19.488281 L 86.101562 19.0625 C 86.269531 18.613281 86.496094 18.207031 86.777344 17.84375 C 87.058594 17.472656 87.410156 17.160156 87.808594 16.921875 C 88.148438 16.695312 88.519531 16.519531 88.925781 16.398438 C 89.339844 16.265625 89.765625 16.183594 90.199219 16.160156 C 90.621094 16.125 91.042969 16.140625 91.460938 16.207031 L 91.460938 19.011719 C 91 18.894531 90.519531 18.855469 90.046875 18.902344 C 89.546875 18.933594 89.058594 19.085938 88.621094 19.335938 C 88.214844 19.546875 87.859375 19.839844 87.578125 20.199219 C 87.3125 20.546875 87.121094 20.945312 86.992188 21.394531 C 86.859375 21.859375 86.796875 22.34375 86.800781 22.828125 L 86.800781 29.671875 Z M 101.945312 29.671875 C 101.035156 29.835938 100.144531 29.90625 99.273438 29.882812 C 98.40625 29.867188 97.628906 29.710938 96.941406 29.421875 C 96.277344 29.140625 95.726562 28.644531 95.378906 28.011719 C 95.074219 27.464844 94.902344 26.855469 94.882812 26.230469 C 94.863281 25.542969 94.855469 24.859375 94.855469 24.171875 L 94.855469 12.46875 L 97.910156 12.46875 L 97.910156 24 C 97.910156 24.539062 97.914062 25.011719 97.921875 25.417969 C 97.941406 25.828125 98.03125 26.160156 98.191406 26.417969 C 98.496094 26.914062 98.984375 27.195312 99.652344 27.25 C 100.324219 27.3125 101.085938 27.277344 101.945312 27.152344 Z M 92.363281 18.566406 L 92.363281 16.207031 L 101.945312 16.207031 L 101.945312 18.566406 Z M 105.152344 14.164062 L 105.152344 11.414062 L 108.222656 11.414062 L 108.222656 14.167969 L 105.15625 14.167969 Z M 105.152344 29.671875 L 105.152344 16.207031 L 108.222656 16.207031 L 108.222656 29.671875 Z M 113.230469 29.671875 L 113.230469 15.996094 C 113.230469 15.65625 113.242188 15.285156 113.269531 14.875 C 113.292969 14.460938 113.367188 14.050781 113.484375 13.640625 C 113.605469 13.234375 113.820312 12.863281 114.132812 12.535156 C 114.523438 12.109375 114.945312 11.820312 115.394531 11.660156 C 115.828125 11.5 116.28125 11.40625 116.742188 11.386719 C 117.183594 11.363281 117.570312 11.347656 117.902344 11.347656 L 119.621094 11.347656 L 119.621094 13.792969 L 118.027344 13.792969 C 117.441406 13.792969 117.007812 13.9375 116.71875 14.226562 C 116.4375 14.507812 116.296875 14.882812 116.296875 15.347656 L 116.296875 29.671875 Z M 111.015625 18.566406 L 111.015625 16.207031 L 119.617188 16.207031 L 119.617188 18.566406 Z M 123.460938 35.652344 L 126.109375 28.535156 L 126.160156 30.628906 L 120.164062 16.207031 L 123.359375 16.207031 L 127.609375 26.878906 L 126.796875 26.878906 L 130.933594 16.207031 L 134 16.207031 L 126.339844 35.652344 Z M 123.460938 35.652344 "/>
</g>
</svg>
