<svg xmlns="http://www.w3.org/2000/svg" width="178" height="178" fill="none"><path stroke="#E3ECEF" stroke-linecap="round" stroke-linejoin="round" stroke-miterlimit="10" stroke-width="3" d="M14.834 89c0 40.961 33.206 74.166 74.167 74.166S163.167 129.961 163.167 89s-33.205-74.167-74.166-74.167M14.834 89c0-40.961 33.206-74.167 74.167-74.167M14.834 89h74.167m0-74.167V89m0 0v74.121M89 89h74.121m-14.805 0c0 32.759-26.557 59.315-59.316 59.315S29.686 121.759 29.686 89c0-32.76 26.556-59.316 59.315-59.316S148.317 56.241 148.317 89zm-14.806 0c0 24.581-19.928 44.509-44.51 44.509-24.58 0-44.508-19.928-44.508-44.51 0-24.58 19.927-44.508 44.509-44.508 24.581 0 44.509 19.927 44.509 44.509zm-14.853 0c0 16.379-13.278 29.657-29.658 29.657-16.38 0-29.657-13.278-29.657-29.657 0-16.38 13.278-29.658 29.657-29.658 16.38 0 29.658 13.278 29.658 29.658zm-14.807 0c0 8.202-6.649 14.851-14.851 14.851-8.202 0-14.851-6.65-14.851-14.851 0-8.203 6.649-14.852 14.851-14.852 8.202 0 14.851 6.65 14.851 14.852z" opacity=".1"/></svg>