<svg xmlns="http://www.w3.org/2000/svg" width="180" height="180" fill="none"><path stroke="#E3ECEF" stroke-linecap="round" stroke-linejoin="round" stroke-miterlimit="10" stroke-width="3" d="M90.063 116.882v47.968M84.689 15l3.349 47.868m5.774 53.739 6.674 47.493M74.316 16.474l9.998 46.918m13.198 52.416 13.222 46.119M64.266 19.373l16.422 45.07m20.373 50.066 19.522 43.82M54.693 23.645 77.24 65.992m27.145 46.744 25.421 40.672M45.82 29.191 74.04 67.99m33.394 42.521 30.845 36.751M37.822 35.912 71.14 70.437m38.993 37.451 35.669 32.103M30.823 43.706l37.818 29.53m43.818 31.679 39.794 26.807M24.974 52.375 66.517 76.36m47.817 25.284 43.142 21.011M20.374 61.794l44.493 17.963m50.866 18.387 45.643 14.816M17.149 71.762l46.568 11.592m52.941 11.118 47.242 8.32M15.35 82.056l47.718 5.021m53.965 3.648L165 92.399m-150 .125 47.942-1.674m53.941-3.898 47.742-5.022M16.1 102.917l47.242-8.32m52.891-11.367L162.8 71.638M18.625 113.084l45.642-14.84m50.792-18.587 44.493-17.988m-136.977 61.11 43.117-21.036m47.691-25.484 41.568-23.984M27.798 131.847l39.793-26.832m43.693-31.879 37.819-29.53m-114.856 96.46 35.67-32.078m38.818-37.65 33.344-34.501m-100.283 111.5 30.845-36.751m33.194-42.671 28.22-38.8M50.269 153.483l25.446-40.673m26.92-46.868 22.521-42.372M59.518 158.38l19.522-43.821m20.146-50.166 16.422-45.07m-46.242 142.63 13.222-46.094m12.973-52.49 9.973-46.919m-25.92 147.677 6.674-47.493m5.524-53.79L95.162 15" opacity=".1"/></svg>