<svg xmlns="http://www.w3.org/2000/svg" width="180" height="180" fill="none"><path stroke="#E3ECEF" stroke-linecap="round" stroke-linejoin="round" stroke-miterlimit="10" stroke-width="3" d="M55.21 55.21c-9.268-9.267-9.268-24.292 0-33.56 9.266-9.267 24.291-9.267 33.559 0l1.23 1.231m-34.79 32.33c-9.267-9.268-24.292-9.268-33.56 0-9.267 9.266-9.267 24.291 0 33.559L22.88 90m32.33-34.79L90 90m0 0 34.789-34.79M89.999 90l-34.79 34.79M90 90l34.79 34.79m0-69.58c9.267-9.267 9.267-24.292 0-33.56-9.267-9.267-24.292-9.267-33.56 0L90 22.882m34.79 32.33c9.267-9.268 24.293-9.268 33.56 0 9.267 9.266 9.267 24.291 0 33.559L157.118 90M89.999 22.881V157.12M55.21 124.79c-9.267 9.267-24.292 9.267-33.56 0-9.267-9.267-9.267-24.292 0-33.56L22.88 90m32.33 34.79c-9.268 9.267-9.268 24.293 0 33.56 9.266 9.267 24.291 9.267 33.559 0l1.23-1.231M22.88 90h134.238m-32.329 34.79c9.267 9.267 24.293 9.267 33.56 0 9.267-9.267 9.267-24.292 0-33.56L157.118 90m-32.329 34.79c9.267 9.267 9.267 24.293 0 33.56-9.267 9.267-24.292 9.267-33.56 0L90 157.119" opacity=".1"/></svg>