<svg xmlns="http://www.w3.org/2000/svg" width="25" height="25" fill="none"><path stroke="#fff" stroke-linecap="round" stroke-linejoin="round" stroke-width="1.5" d="M9.5 13.5c-.66.33-1.21.82-1.62 1.43-.23.35-.23.79 0 1.14.41.61.96 1.1 1.62 1.43m6.21-4c.66.33 1.21.82 1.62 1.43.23.35.23.79 0 1.14-.41.61-.96 1.1-1.62 1.43"/><path stroke="#fff" stroke-linecap="round" stroke-linejoin="round" stroke-width="1.5" d="M9.5 22.5h6c5 0 7-2 7-7v-6c0-5-2-7-7-7h-6c-5 0-7 2-7 7v6c0 5 2 7 7 7zM2.73 8.51l19.22-.01"/></svg>