<svg xmlns="http://www.w3.org/2000/svg" width="120" height="120" fill="none"><g clip-path="url(#a)"><path fill="#FC490B" d="m7.554 3.972 7.789 99.637a3.686 3.686 0 0 0 2.56 3.226l40.982 12.993a3.697 3.697 0 0 0 2.227 0l40.982-12.993a3.687 3.687 0 0 0 2.561-3.226l7.788-99.637A3.686 3.686 0 0 0 108.769 0h-97.54a3.685 3.685 0 0 0-3.675 3.972zM92.47 34.886H41.713l1.532 14.126h48.121l-3.147 40.27-28.22 8.947-28.22-8.947-1.645-21.039h14.812v10.32l15.449 4.146 15.355-4.146 1.192-16.447H29.655l-3.139-40.164h66.965l-1.01 12.934z"/></g><defs><clipPath id="a"><path fill="#fff" d="M0 0h120v120H0z"/></clipPath></defs></svg>