<svg xmlns="http://www.w3.org/2000/svg" width="120" height="120" fill="none"><g clip-path="url(#a)"><path fill="red" d="M117.528 31.194a15.036 15.036 0 0 0-10.577-10.577c-9.39-2.57-46.952-2.57-46.952-2.57s-37.561 0-46.952 2.472c-5.04 1.383-9.193 5.535-10.576 10.675C0 40.584 0 60.057 0 60.057s0 19.57 2.471 28.862a15.037 15.037 0 0 0 10.577 10.577c9.489 2.57 46.952 2.57 46.952 2.57s37.56 0 46.951-2.472a15.033 15.033 0 0 0 10.577-10.576c2.471-9.39 2.471-28.862 2.471-28.862s.099-19.573-2.471-28.962z"/><path fill="#fff" d="m48.04 78.046 31.234-17.99-31.235-17.99v35.98z"/></g><defs><clipPath id="a"><path fill="#fff" d="M0 0h120v120H0z"/></clipPath></defs></svg>