<svg xmlns="http://www.w3.org/2000/svg" width="120" height="120" fill="none"><path fill="#FF2820" d="M32.48 10 5 40l13.74 9.285L32.48 40l7.76-15-7.76-15z"/><path fill="#0084FF" d="M32.48 40H5v39l13.74 8.237L32.48 79V40z"/><path fill="#06D" d="M5 79v20c0 5.5 4.122 10 9.16 10h18.32l7.76-15.924L32.48 79H5z"/><path fill="#00AD3C" d="M109.248 20.651 92.252 35.35v.151L86.71 58.602l5.543 23.38 16.921 14.867c2.27 2.08 5.751.332 5.751-2.912V23.563c0-3.244-3.405-4.991-5.676-2.912z"/><path fill="#FFBA00" d="M92.251 35.35V19.884c0-5.437-4.034-9.885-8.965-9.885H32.48v30h33.665v19.5l18.086-2.2 8.02-21.95z"/><path fill="#00AD3C" d="M66.145 79H32.48v30h50.805c4.93 0 8.965-4.442 8.965-9.87V82l-8.97-20.124L66.145 59.5V79z"/><path fill="#00831E" d="M66.144 59.5 92.251 82V35.35L66.144 59.5z"/></svg>