<svg xmlns="http://www.w3.org/2000/svg" width="120" height="120" fill="none"><path fill="url(#a)" d="M60 120c33.137 0 60-26.863 60-60S93.137 0 60 0 0 26.863 0 60s26.863 60 60 60z"/><path fill="url(#b)" d="M44.164 65.171a4.737 4.737 0 1 1 9.473 0 4.737 4.737 0 0 1-9.473 0z"/><path fill="url(#c)" d="M50.074 76.405a15.505 15.505 0 0 0 9.869 2.984c3.534.19 7.029-.829 9.907-2.889a1.328 1.328 0 1 1 1.856 1.903v-.19a18.229 18.229 0 0 1-11.708 3.656 18.221 18.221 0 0 1-11.716-3.656 1.28 1.28 0 0 1 1.8-1.808h-.008z"/><path fill="url(#d)" d="M70.823 70.263v-.174a3.363 3.363 0 1 1 .23.174h-.23z"/><path fill="url(#e)" d="M119.21 69.734a60.071 60.071 0 0 1-43.422 48.158L39.473 81.576c5.06 3.948 12.434 6.458 20.644 6.458 15.26 0 27.632-8.629 27.632-19.255a15.44 15.44 0 0 0 0-2.092 6.859 6.859 0 0 0 .266-12.037 6.862 6.862 0 0 0-8.16.984 33.71 33.71 0 0 0-18.277-5.795l3.079-14.794 10.168 2.14a4.738 4.738 0 1 0 8.582-3.238l35.803 35.787z"/><path fill="#fff" d="M91.58 60.426a6.932 6.932 0 0 0-11.716-4.737 33.712 33.712 0 0 0-18.284-5.85l3.08-14.794 10.168 2.139a4.737 4.737 0 1 0 .623-2.905l-11.62-2.321a1.468 1.468 0 0 0-1.753 1.12L58.58 49.556a34.011 34.011 0 0 0-18.497 5.834 6.924 6.924 0 0 0-9.474 10.09c.545.52 1.175.942 1.863 1.247a15.44 15.44 0 0 0 0 2.092c0 10.619 12.371 19.255 27.632 19.255 15.26 0 27.632-8.628 27.632-19.255.047-.696.047-1.395 0-2.092a6.915 6.915 0 0 0 3.844-6.3zm-47.416 4.737a4.738 4.738 0 1 1 0 .008v-.008zm27.545 13.05a18.229 18.229 0 0 1-11.708 3.655 18.22 18.22 0 0 1-11.715-3.655 1.278 1.278 0 0 1 1.8-1.808 15.505 15.505 0 0 0 9.868 2.984 15.592 15.592 0 0 0 9.9-2.89 1.35 1.35 0 0 1 1.879 0 1.114 1.114 0 0 1-.024 1.714zm-5.597-12.876a4.737 4.737 0 0 1 9.474 0c.126 2.62-1.374 4.926-4.532 4.926a4.737 4.737 0 0 1-4.942-4.926z"/><defs><linearGradient id="a" x1="60" x2="60" y1="0" y2="120" gradientUnits="userSpaceOnUse"><stop stop-color="#FF4500"/><stop offset="1" stop-color="#DD3400"/></linearGradient><linearGradient id="b" x1="45.553" x2="52.272" y1="61.816" y2="68.527" gradientUnits="userSpaceOnUse"><stop stop-color="#BF2800"/><stop offset="1" stop-color="#BF2800" stop-opacity="0"/></linearGradient><linearGradient id="c" x1="53.737" x2="66.369" y1="71.108" y2="83.74" gradientUnits="userSpaceOnUse"><stop stop-color="#BF2800"/><stop offset="1" stop-color="#BF2800" stop-opacity="0"/></linearGradient><linearGradient id="d" x1="67.5" x2="74.313" y1="61.981" y2="68.794" gradientUnits="userSpaceOnUse"><stop stop-color="#BF2800"/><stop offset="1" stop-color="#BF2800" stop-opacity="0"/></linearGradient><linearGradient id="e" x1="51.694" x2="104.257" y1="48.032" y2="100.595" gradientUnits="userSpaceOnUse"><stop stop-color="#BF2800"/><stop offset="1" stop-color="#BF2800" stop-opacity="0"/></linearGradient></defs></svg>