<svg xmlns="http://www.w3.org/2000/svg" width="120" height="120" fill="none"><g clip-path="url(#a)"><path fill="#12C64B" d="M60 120c33.137 0 60-26.863 60-60S93.137 0 60 0 0 26.863 0 60s26.863 60 60 60z"/><path fill="#fff" d="M81.674 82.18a3.552 3.552 0 0 1-4.855 1.274C67.485 78 56.706 77.127 49.301 77.319a68.31 68.31 0 0 0-14.27 1.882 3.552 3.552 0 0 1-1.882-6.818 73.981 73.981 0 0 1 15.736-2.155 69.75 69.75 0 0 1 15.164 1.098 51.213 51.213 0 0 1 16.364 5.973 3.547 3.547 0 0 1 1.261 4.882zm6.6-13.712a4.2 4.2 0 0 1-5.755 1.507c-11.052-6.457-23.816-7.5-32.59-7.228a80.667 80.667 0 0 0-16.903 2.23 4.206 4.206 0 0 1-2.23-8.107 87.19 87.19 0 0 1 18.642-2.523 81.431 81.431 0 0 1 17.965 1.303 60.554 60.554 0 0 1 19.364 7.077 4.207 4.207 0 0 1 1.507 5.74zm8.544-15.02a5.148 5.148 0 0 1-7.057 1.848C63.484 39.94 29.4 49.07 29.08 49.159a5.162 5.162 0 1 1-2.727-9.947 107.112 107.112 0 0 1 22.807-3.076c7.38-.275 14.767.26 22.03 1.596a74.42 74.42 0 0 1 23.754 8.632 5.16 5.16 0 0 1 1.875 7.084z"/></g><defs><clipPath id="a"><path fill="#fff" d="M0 0h120v120H0z"/></clipPath></defs></svg>