<svg xmlns="http://www.w3.org/2000/svg" width="120" height="120" fill="none"><g clip-path="url(#a)"><path fill="#F44336" d="m47.18 11.66-45 5.846a2.5 2.5 0 0 0-2.18 2.5v35a2.5 2.5 0 0 0 2.5 2.5h45a2.5 2.5 0 0 0 2.5-2.5v-40.87a2.5 2.5 0 0 0-.85-1.875 2.556 2.556 0 0 0-1.97-.6z"/><path fill="#4CAF50" d="M119.15 3.131a2.5 2.5 0 0 0-1.97-.625l-60 7.825a2.5 2.5 0 0 0-2.18 2.5v42.175a2.5 2.5 0 0 0 2.5 2.5h60a2.5 2.5 0 0 0 2.5-2.5v-50a2.502 2.502 0 0 0-.85-1.875z"/><path fill="#2196F3" d="M47.5 62.506h-45a2.5 2.5 0 0 0-2.5 2.5v35a2.5 2.5 0 0 0 2.18 2.5l45 5.87c.107.007.214.007.32 0a2.5 2.5 0 0 0 2.5-2.5v-40.87a2.5 2.5 0 0 0-2.5-2.5z"/><path fill="#FFC107" d="M117.5 62.506h-60a2.5 2.5 0 0 0-2.5 2.5v42.175a2.5 2.5 0 0 0 2.18 2.5l60 7.825c.107.007.214.007.32 0a2.5 2.5 0 0 0 2.5-2.5v-50a2.5 2.5 0 0 0-2.5-2.5z"/></g><defs><clipPath id="a"><path fill="#fff" d="M0 0h120v120H0z"/></clipPath></defs></svg>