<svg xmlns="http://www.w3.org/2000/svg" width="120" height="120" fill="none"><g clip-path="url(#a)"><path fill="#CB1F24" d="M59.998 0C26.952 0 .102 26.85.102 59.897c0 24.578 14.664 45.645 35.938 54.939-.207-4.13 0-9.294 1.032-13.838 1.24-4.957 7.642-32.633 7.642-32.633s-1.859-3.924-1.859-9.501c0-8.881 5.164-15.49 11.567-15.49 5.37 0 8.055 4.13 8.055 9.087 0 5.37-3.511 13.632-5.37 21.274-1.446 6.403 3.098 11.566 9.5 11.566 11.36 0 19.002-14.665 19.002-31.807 0-13.22-8.881-22.926-24.991-22.926-18.176 0-29.535 13.631-29.535 28.709 0 5.163 1.445 8.881 3.924 11.772 1.033 1.24 1.24 1.86.826 3.305-.207 1.033-1.033 3.718-1.24 4.75-.413 1.446-1.652 2.066-3.097 1.446-8.468-3.51-12.186-12.599-12.186-22.926 0-16.936 14.25-37.384 42.754-37.384 22.926 0 38.003 16.524 38.003 34.286 0 23.546-13.012 41.102-32.22 41.102-6.403 0-12.6-3.512-14.665-7.436 0 0-3.51 13.839-4.13 16.524-1.24 4.544-3.718 9.294-5.99 12.805 5.37 1.652 11.153 2.479 16.936 2.479 33.047 0 59.897-26.85 59.897-59.897S93.045 0 59.998 0z"/></g><defs><clipPath id="a"><path fill="#fff" d="M0 0h120v120H0z"/></clipPath></defs></svg>