<svg xmlns="http://www.w3.org/2000/svg" width="120" height="120" fill="none"><g clip-path="url(#a)"><path fill="#0077B5" d="M103.636 0H16.364C7.326 0 0 7.326 0 16.364v87.272C0 112.674 7.326 120 16.364 120h87.272c9.038 0 16.364-7.326 16.364-16.364V16.364C120 7.326 112.674 0 103.636 0z"/><path fill="#fff" d="M43.228 32.727a10.227 10.227 0 1 1-20.454 0 10.227 10.227 0 0 1 20.454 0zm-2.32 17.046v45.184a2.528 2.528 0 0 1-2.53 2.543h-10.78a2.528 2.528 0 0 1-2.535-2.536V49.773a2.536 2.536 0 0 1 2.536-2.537h10.78a2.537 2.537 0 0 1 2.529 2.537zm56.346 23.522v21.873a2.325 2.325 0 0 1-2.332 2.332H83.33a2.324 2.324 0 0 1-2.332-2.332V73.97c0-3.163.927-13.854-8.27-13.854-7.125 0-8.578 7.316-8.864 10.602v24.45a2.333 2.333 0 0 1-2.298 2.332H50.372a2.324 2.324 0 0 1-2.325-2.332V49.575a2.326 2.326 0 0 1 2.325-2.332h11.195a2.332 2.332 0 0 1 2.332 2.332v3.94c2.646-3.967 6.566-7.029 14.932-7.029 18.532 0 18.423 17.305 18.423 26.81z"/></g><defs><clipPath id="a"><path fill="#fff" d="M0 0h120v120H0z"/></clipPath></defs></svg>