<svg xmlns="http://www.w3.org/2000/svg" width="120" height="120" fill="none"><g fill-rule="evenodd" clip-path="url(#a)" clip-rule="evenodd"><path fill="url(#b)" d="M60 0C26.2 0 0 24.758 0 58.2c0 17.492 7.169 32.607 18.843 43.048a4.791 4.791 0 0 1 1.612 3.421l.327 10.673c.104 3.404 3.62 5.619 6.736 4.244l11.909-5.257a4.79 4.79 0 0 1 3.205-.236C48.104 115.598 53.929 116.4 60 116.4c33.8 0 60-24.759 60-58.2C120 24.758 93.8 0 60 0z"/><path fill="#fff" d="m23.971 75.22 17.625-27.962c2.804-4.448 8.807-5.556 13.014-2.401l14.018 10.514a3.6 3.6 0 0 0 4.336-.013L91.896 40.99c2.528-1.918 5.826 1.107 4.135 3.79L78.406 72.743c-2.804 4.448-8.808 5.556-13.014 2.4L51.374 64.63a3.6 3.6 0 0 0-4.337.013L28.105 79.01c-2.527 1.917-5.825-1.107-4.134-3.79z"/></g><defs><radialGradient id="b" cx="0" cy="0" r="1" gradientTransform="translate(23.11 118.543) scale(130.687)" gradientUnits="userSpaceOnUse"><stop stop-color="#09F"/><stop offset=".61" stop-color="#A033FF"/><stop offset=".935" stop-color="#FF5280"/><stop offset="1" stop-color="#FF7061"/></radialGradient><clipPath id="a"><path fill="#fff" d="M0 0h120v120H0z"/></clipPath></defs></svg>